<svg width="100" height="40" viewBox="0 0 112 40" fill="none" xmlns="http://www.w3.org/2000/svg">
<path d="M1.77472 37.86C1.05472 37.5 0.514715 36 1.83472 36.3C2.37472 36.42 3.03472 36.48 3.81472 36.48C5.73472 36.48 8.13472 36.18 9.69472 35.82C8.19472 35.04 5.91472 33.9 4.71472 33.24C3.15472 32.34 1.47472 31.74 1.23472 29.94C0.754715 26.76 7.29472 24.84 10.3547 24.42C11.3147 24.3 12.5147 25.44 12.0347 26.04C9.81472 26.82 4.35472 27.84 3.69472 29.4C3.33472 30.24 4.71472 30.84 5.91472 31.56C8.19472 32.82 9.99472 33.72 11.1947 34.68C12.5147 35.82 11.3747 37.5 9.81472 37.92C8.73472 38.22 7.17472 38.4 5.61472 38.4C4.11472 38.4 2.67472 38.22 1.77472 37.86ZM35.055 30.48C33.735 30.96 29.835 31.5 26.175 31.32C26.415 32.1 26.475 33 26.295 33.9C25.755 36.9 23.295 38.4 20.535 38.22C18.315 38.1 16.815 36.24 16.515 34.56C16.095 32.04 17.655 29.16 19.035 28.68C19.155 28.68 19.215 28.62 19.335 28.62C19.575 27.78 19.995 27.12 21.195 27.18C22.815 27.42 24.135 28.2 25.035 29.28C26.535 29.46 28.095 29.52 29.475 29.52C32.295 29.52 34.635 29.28 35.175 29.28C36.915 29.22 36.495 30 35.055 30.48ZM20.235 30C19.455 30.6 18.315 32.7 18.615 34.38C18.915 36.12 19.575 36.78 20.715 36.72C23.355 36.6 24.675 33.18 23.715 31.02C22.335 30.78 21.195 30.42 20.355 29.88L20.235 30ZM35.1732 37.86C34.4532 37.5 33.9132 36 35.2332 36.3C35.7732 36.42 36.4332 36.48 37.2132 36.48C39.1332 36.48 41.5332 36.18 43.0932 35.82C41.5932 35.04 39.3132 33.9 38.1132 33.24C36.5532 32.34 34.8732 31.74 34.6332 29.94C34.1532 26.76 40.6932 24.84 43.7532 24.42C44.7132 24.3 45.9132 25.44 45.4332 26.04C43.2132 26.82 37.7532 27.84 37.0932 29.4C36.7332 30.24 38.1132 30.84 39.3132 31.56C41.5932 32.82 43.3932 33.72 44.5932 34.68C45.9132 35.82 44.7732 37.5 43.2132 37.92C42.1332 38.22 40.5732 38.4 39.0132 38.4C37.5132 38.4 36.0732 38.22 35.1732 37.86ZM51.4135 37.86C51.3535 37.74 51.3535 37.02 51.3535 35.88V27.36C51.3535 19.08 51.6535 11.7 52.0735 4.02C52.0735 3.18 54.4135 3.9 54.4135 4.8C53.6335 12.48 53.5135 20.28 53.3935 28.5V33.84C55.2535 31.74 60.3535 26.94 63.7735 28.02C64.6135 28.26 65.5135 28.98 65.7535 29.76C65.9335 31.2 65.4535 32.88 65.8735 34.62C66.4735 34.92 67.1335 35.04 67.7935 35.04C70.9135 35.04 77.3935 32.52 79.3135 29.94C79.8535 29.28 79.5535 31.2 78.6535 32.52C77.3335 34.5 72.8335 36.78 68.9935 36.78C67.6735 36.78 66.3535 36.48 64.9735 35.58C63.5935 34.56 63.2935 33 63.2935 31.74C63.2935 30.9 63.4135 30.18 63.4135 29.76C59.9935 29.58 53.6935 35.94 53.4535 38.7C53.5135 39.6 51.6535 38.82 51.4135 37.86ZM78.375 54.84C77.715 52.74 77.475 43.44 77.475 35.4C77.475 31.92 77.535 28.68 77.595 26.34C77.655 23.52 77.775 19.98 77.955 16.32C72.975 16.74 68.295 17.1 63.495 17.94C62.355 18.12 61.095 16.56 62.115 16.32C66.375 15.54 70.635 15.06 78.015 14.46C78.255 9.78 78.555 5.04 78.795 1.32C78.735 0.359997 81.075 0.719999 81.255 1.92C80.835 4.92 80.475 9.6 80.235 14.28C80.775 14.28 81.375 14.22 81.975 14.16C87.075 13.8 93.915 13.26 99.795 13.26C103.215 13.26 106.335 13.44 108.495 13.92C109.035 14.16 109.635 14.76 109.875 15.12C109.935 15.6 109.635 15.84 109.155 15.78C106.455 15.24 103.095 15.06 99.495 15.06C93.075 15.06 86.055 15.66 81.495 16.02C81.015 16.08 80.595 16.14 80.115 16.14L79.695 26.22C79.635 30.06 79.455 35.7 79.455 41.16C79.455 47.28 79.695 53.16 80.475 55.98C80.655 57.36 78.795 56.1 78.375 54.84ZM86.5599 36.66C85.3599 35.76 84.7599 34.62 84.7599 33.36C84.7599 32.04 85.4199 30.72 86.9199 29.7C88.5399 28.62 90.5799 28.08 92.6799 28.08C94.3599 28.08 96.0399 28.44 97.5399 29.1H97.5999L98.6199 27.72C98.9799 27.06 101.02 28.38 100.6 29.1C100.3 30 99.7599 31.08 99.6399 32.22C99.5799 33.24 99.8799 34.44 100.96 34.74C104.02 35.34 109.18 32.28 111.34 29.88C112.36 28.86 113.26 30.36 109.96 33.66C108.46 35.16 104.32 37.08 101.8 36.48C99.8199 36 98.3199 34.86 97.5399 32.7C95.8599 34.2 91.8999 37.26 88.7199 37.26C87.9399 37.26 87.2199 37.08 86.5599 36.66ZM87.6399 35.34C90.5199 34.98 94.4199 32.52 96.5199 30.3C95.9199 30.12 95.0799 30 94.1799 30C91.1799 30 87.2199 31.14 86.5599 33.9C86.3799 34.62 86.7399 35.28 87.6399 35.34Z" fill="#79C14D"/>
</svg>
