<svg width="100" height="40" viewBox="0 0 114 40" fill="none" xmlns="http://www.w3.org/2000/svg">
<path d="M2.0957 37.86C1.3757 37.5 0.835703 36 2.1557 36.3C2.6957 36.42 3.3557 36.48 4.1357 36.48C6.0557 36.48 8.4557 36.18 10.0157 35.82C8.5157 35.04 6.2357 33.9 5.0357 33.24C3.4757 32.34 1.7957 31.74 1.5557 29.94C1.0757 26.76 7.6157 24.84 10.6757 24.42C11.6357 24.3 12.8357 25.44 12.3557 26.04C10.1357 26.82 4.6757 27.84 4.0157 29.4C3.6557 30.24 5.0357 30.84 6.2357 31.56C8.5157 32.82 10.3157 33.72 11.5157 34.68C12.8357 35.82 11.6957 37.5 10.1357 37.92C9.0557 38.22 7.4957 38.4 5.9357 38.4C4.4357 38.4 2.9957 38.22 2.0957 37.86ZM35.376 30.48C34.056 30.96 30.156 31.5 26.496 31.32C26.736 32.1 26.796 33 26.616 33.9C26.076 36.9 23.616 38.4 20.856 38.22C18.636 38.1 17.136 36.24 16.836 34.56C16.416 32.04 17.976 29.16 19.356 28.68C19.476 28.68 19.536 28.62 19.656 28.62C19.896 27.78 20.316 27.12 21.516 27.18C23.136 27.42 24.456 28.2 25.356 29.28C26.856 29.46 28.416 29.52 29.796 29.52C32.616 29.52 34.956 29.28 35.496 29.28C37.236 29.22 36.816 30 35.376 30.48ZM20.556 30C19.776 30.6 18.636 32.7 18.936 34.38C19.236 36.12 19.896 36.78 21.036 36.72C23.676 36.6 24.996 33.18 24.036 31.02C22.656 30.78 21.516 30.42 20.676 29.88L20.556 30ZM35.4941 37.86C34.7741 37.5 34.2341 36 35.5541 36.3C36.0941 36.42 36.7541 36.48 37.5341 36.48C39.4541 36.48 41.8541 36.18 43.4141 35.82C41.9141 35.04 39.6341 33.9 38.4341 33.24C36.8741 32.34 35.1941 31.74 34.9541 29.94C34.4741 26.76 41.0141 24.84 44.0741 24.42C45.0341 24.3 46.2341 25.44 45.7541 26.04C43.5341 26.82 38.0741 27.84 37.4141 29.4C37.0541 30.24 38.4341 30.84 39.6341 31.56C41.9141 32.82 43.7141 33.72 44.9141 34.68C46.2341 35.82 45.0941 37.5 43.5341 37.92C42.4541 38.22 40.8941 38.4 39.3341 38.4C37.8341 38.4 36.3941 38.22 35.4941 37.86ZM51.7345 37.86C51.6745 37.74 51.6745 37.02 51.6745 35.88V27.36C51.6745 19.08 51.9745 11.7 52.3945 4.02C52.3945 3.18 54.7345 3.9 54.7345 4.8C53.9545 12.48 53.8345 20.28 53.7145 28.5V33.84C55.5745 31.74 60.6745 26.94 64.0945 28.02C64.9345 28.26 65.8345 28.98 66.0745 29.76C66.2545 31.2 65.7745 32.88 66.1945 34.62C66.7945 34.92 67.4545 35.04 68.1145 35.04C71.2345 35.04 77.7145 32.52 79.6345 29.94C80.1745 29.28 79.8745 31.2 78.9745 32.52C77.6545 34.5 73.1545 36.78 69.3145 36.78C67.9945 36.78 66.6745 36.48 65.2945 35.58C63.9145 34.56 63.6145 33 63.6145 31.74C63.6145 30.9 63.7345 30.18 63.7345 29.76C60.3145 29.58 54.0145 35.94 53.7745 38.7C53.8345 39.6 51.9745 38.82 51.7345 37.86ZM78.696 54.84C78.036 52.74 77.796 43.44 77.796 35.4C77.796 31.92 77.856 28.68 77.916 26.34C77.976 23.52 78.096 19.98 78.276 16.32C73.296 16.74 68.616 17.1 63.816 17.94C62.676 18.12 61.416 16.56 62.436 16.32C66.696 15.54 70.956 15.06 78.336 14.46C78.576 9.78 78.876 5.04 79.116 1.32C79.056 0.359997 81.396 0.719999 81.576 1.92C81.156 4.92 80.796 9.6 80.556 14.28C81.096 14.28 81.696 14.22 82.296 14.16C87.396 13.8 94.236 13.26 100.116 13.26C103.536 13.26 106.656 13.44 108.816 13.92C109.356 14.16 109.956 14.76 110.196 15.12C110.256 15.6 109.956 15.84 109.476 15.78C106.776 15.24 103.416 15.06 99.816 15.06C93.396 15.06 86.376 15.66 81.816 16.02C81.336 16.08 80.916 16.14 80.436 16.14L80.016 26.22C79.956 30.06 79.776 35.7 79.776 41.16C79.776 47.28 80.016 53.16 80.796 55.98C80.976 57.36 79.116 56.1 78.696 54.84ZM86.8809 36.66C85.6809 35.76 85.0809 34.62 85.0809 33.36C85.0809 32.04 85.7409 30.72 87.2409 29.7C88.8609 28.62 90.9009 28.08 93.0009 28.08C94.6809 28.08 96.3609 28.44 97.8609 29.1H97.9209L98.9409 27.72C99.3009 27.06 101.341 28.38 100.921 29.1C100.621 30 100.081 31.08 99.9609 32.22C99.9009 33.24 100.201 34.44 101.281 34.74C104.341 35.34 109.501 32.28 111.661 29.88C112.681 28.86 113.581 30.36 110.281 33.66C108.781 35.16 104.641 37.08 102.121 36.48C100.141 36 98.6409 34.86 97.8609 32.7C96.1809 34.2 92.2209 37.26 89.0409 37.26C88.2609 37.26 87.5409 37.08 86.8809 36.66ZM87.9609 35.34C90.8409 34.98 94.7409 32.52 96.8409 30.3C96.2409 30.12 95.4009 30 94.5009 30C91.5009 30 87.5409 31.14 86.8809 33.9C86.7009 34.62 87.0609 35.28 87.9609 35.34Z" fill="#638250"/>
</svg>
